<svg width="18" height="14" viewBox="0 0 18 14" fill="none" xmlns="http://www.w3.org/2000/svg">
<path d="M15.3609 3.66412C15.3717 3.80995 15.3717 3.95495 15.3717 4.09995C15.3717 8.53745 11.9942 13.6508 5.82175 13.6508C3.92008 13.6508 2.15341 13.1 0.666748 12.1433C0.936748 12.1741 1.19675 12.185 1.47758 12.185C2.98841 12.1886 4.45645 11.6834 5.64508 10.7508C4.9446 10.7381 4.26556 10.507 3.70278 10.0897C3.14 9.67247 2.72157 9.08987 2.50591 8.42329C2.71341 8.45412 2.92175 8.47495 3.14008 8.47495C3.44091 8.47495 3.74341 8.43329 4.02425 8.36079C3.26405 8.2073 2.58048 7.79524 2.08976 7.19469C1.59905 6.59414 1.33149 5.84216 1.33258 5.06662V5.02495C1.78008 5.27412 2.29925 5.42995 2.84925 5.45079C2.38849 5.14461 2.01068 4.72914 1.74953 4.24145C1.48838 3.75375 1.35201 3.209 1.35258 2.65579C1.35258 2.03245 1.51841 1.46079 1.80925 0.962455C2.6527 1.99997 3.70467 2.84876 4.89703 3.45384C6.08939 4.05892 7.39555 4.4068 8.73091 4.47495C8.67925 4.22495 8.64758 3.96579 8.64758 3.70579C8.64736 3.26492 8.73404 2.82834 8.90265 2.42099C9.07126 2.01364 9.3185 1.64352 9.63024 1.33178C9.94198 1.02004 10.3121 0.772797 10.7194 0.604186C11.1268 0.435576 11.5634 0.348902 12.0042 0.349122C12.9709 0.349122 13.8434 0.754121 14.4567 1.40912C15.2082 1.2638 15.9289 0.989473 16.5867 0.598288C16.3363 1.37397 15.8115 2.03171 15.1109 2.44829C15.7774 2.37227 16.4288 2.197 17.0434 1.92829C16.5844 2.59754 16.0155 3.18441 15.3609 3.66412Z" fill="white"/>
</svg>
