<svg width="20" height="16" viewBox="0 0 20 16" fill="none" xmlns="http://www.w3.org/2000/svg">
<path d="M16.9307 1.74315C15.6557 1.16815 14.2891 0.743149 12.8599 0.501482C12.8472 0.499039 12.834 0.500613 12.8222 0.505988C12.8104 0.511363 12.8006 0.520272 12.7941 0.531482C12.6191 0.838982 12.4241 1.23982 12.2874 1.55648C10.7717 1.33001 9.23067 1.33001 7.71491 1.55648C7.56269 1.20553 7.39104 0.863335 7.20075 0.531482C7.1943 0.520134 7.18454 0.511023 7.17278 0.505365C7.16101 0.499707 7.1478 0.497771 7.13491 0.499815C5.70658 0.741482 4.33991 1.16648 3.06408 1.74232C3.0531 1.74692 3.0438 1.75477 3.03741 1.76482C0.444079 5.57731 -0.266754 9.29565 0.0824123 12.9673C0.0833839 12.9763 0.0861752 12.985 0.0906163 12.9929C0.0950575 13.0008 0.101056 13.0077 0.108246 13.0131C1.62191 14.1152 3.31019 14.9547 5.10241 15.4965C5.11491 15.5003 5.12827 15.5003 5.14076 15.4965C5.15324 15.4926 5.16428 15.485 5.17241 15.4748C5.55807 14.959 5.89983 14.4118 6.19408 13.839C6.19816 13.8311 6.20052 13.8225 6.20098 13.8137C6.20145 13.8049 6.20001 13.7961 6.19677 13.7879C6.19353 13.7796 6.18856 13.7722 6.1822 13.7661C6.17584 13.7599 6.16824 13.7553 6.15991 13.7523C5.62158 13.5496 5.09998 13.3049 4.59991 13.0206C4.59093 13.0155 4.58335 13.0082 4.57788 12.9995C4.5724 12.9907 4.56918 12.9807 4.56852 12.9704C4.56786 12.96 4.56978 12.9497 4.57409 12.9403C4.57841 12.9309 4.58499 12.9227 4.59325 12.9165C4.69825 12.839 4.80325 12.7581 4.90325 12.6773C4.91225 12.67 4.92309 12.6654 4.93457 12.6639C4.94604 12.6625 4.9577 12.6642 4.96825 12.669C8.24075 14.139 11.7849 14.139 15.0191 12.669C15.0297 12.6639 15.0414 12.662 15.0531 12.6633C15.0647 12.6646 15.0757 12.6692 15.0849 12.6765C15.1849 12.7581 15.2891 12.839 15.3949 12.9165C15.4033 12.9226 15.4099 12.9307 15.4144 12.94C15.4188 12.9493 15.4209 12.9596 15.4204 12.9699C15.4199 12.9802 15.4169 12.9903 15.4116 12.9991C15.4062 13.008 15.3988 13.0154 15.3899 13.0206C14.8916 13.3073 14.3732 13.5498 13.8291 13.7515C13.8207 13.7545 13.8131 13.7593 13.8067 13.7655C13.8004 13.7717 13.7954 13.7792 13.7922 13.7875C13.789 13.7958 13.7875 13.8047 13.788 13.8135C13.7885 13.8224 13.7908 13.8311 13.7949 13.839C14.0949 14.4115 14.4382 14.9565 14.8157 15.474C14.8236 15.4846 14.8345 15.4925 14.8471 15.4967C14.8596 15.5009 14.8731 15.5011 14.8857 15.4973C16.681 14.957 18.3721 14.1171 19.8874 13.0131C19.8948 13.008 19.901 13.0013 19.9056 12.9935C19.9102 12.9858 19.9131 12.9771 19.9141 12.9681C20.3307 8.72315 19.2157 5.03481 16.9566 1.76648C16.951 1.75586 16.9419 1.74758 16.9307 1.74315ZM6.68325 10.7315C5.69825 10.7315 4.88575 9.84065 4.88575 8.74815C4.88575 7.65481 5.68241 6.76481 6.68325 6.76481C7.69158 6.76481 8.49658 7.66231 8.48075 8.74815C8.48075 9.84148 7.68408 10.7315 6.68325 10.7315ZM13.3291 10.7315C12.3432 10.7315 11.5316 9.84065 11.5316 8.74815C11.5316 7.65481 12.3274 6.76481 13.3291 6.76481C14.3374 6.76481 15.1424 7.66231 15.1266 8.74815C15.1266 9.84148 14.3382 10.7315 13.3291 10.7315Z" fill="white"/>
</svg>
