<svg width="20" height="18" viewBox="0 0 20 18" fill="none" xmlns="http://www.w3.org/2000/svg">
<path d="M19.6001 9.11998C19.6001 7.91998 18.6401 6.95998 17.4401 7.07998C16.9601 7.07998 16.3601 7.31998 16.0001 7.67998C14.3201 6.59998 12.4001 5.87998 10.3601 5.87998L11.3201 1.31998L14.4401 2.03998C14.4401 2.87998 15.1601 3.47998 16.0001 3.47998C16.8401 3.47998 17.4401 2.75998 17.4401 1.91998C17.4401 1.07998 16.7201 0.47998 15.8801 0.47998C15.2801 0.47998 14.8001 0.83998 14.5601 1.31998L11.2001 0.47998H10.9601C10.8401 0.47998 10.8401 0.59998 10.8401 0.71998L9.64012 5.87998C7.60012 5.87998 5.68012 6.47998 4.00012 7.67998C3.16012 6.83998 1.84012 6.83998 1.00012 7.67998C0.160117 8.51998 0.160117 9.83998 1.00012 10.68C1.12012 10.8 1.36012 11.04 1.60012 11.04V11.64C1.60012 14.88 5.32012 17.52 10.0001 17.52C14.6801 17.52 18.4001 14.88 18.4001 11.64V11.04C19.1201 10.68 19.6001 9.95998 19.6001 9.11998ZM5.20012 10.68C5.20012 9.83998 5.92012 9.23998 6.64012 9.23998C7.48012 9.23998 8.08012 9.95998 8.08012 10.68C8.08012 11.4 7.36012 12.12 6.64012 12.12C5.80012 12.12 5.20012 11.52 5.20012 10.68ZM13.6001 14.64C12.5201 15.36 11.3201 15.84 10.0001 15.72C8.68012 15.72 7.48012 15.36 6.40012 14.64C6.28012 14.52 6.28012 14.28 6.40012 14.04C6.52012 13.92 6.76012 13.92 6.88012 14.04C7.72012 14.64 8.80012 15 9.88012 14.88C10.9601 15 12.0401 14.64 12.8801 14.04C13.0001 13.92 13.2401 13.92 13.4801 14.04C13.7201 14.16 13.7201 14.4 13.6001 14.64ZM13.2401 12.12C12.4001 12.12 11.8001 11.4 11.8001 10.68C11.8001 9.95998 12.5201 9.23998 13.2401 9.23998C14.0801 9.23998 14.6801 9.95998 14.6801 10.68C14.8001 11.52 14.0801 12.12 13.2401 12.12Z" fill="#206966"/>
</svg>
