<svg width="18" height="14" viewBox="0 0 18 14" fill="none" xmlns="http://www.w3.org/2000/svg">
<path d="M15.3607 3.66412C15.3715 3.80995 15.3715 3.95495 15.3715 4.09995C15.3715 8.53745 11.994 13.6508 5.8215 13.6508C3.91984 13.6508 2.15317 13.1 0.666504 12.1433C0.936504 12.1741 1.1965 12.185 1.47734 12.185C2.98816 12.1886 4.45621 11.6834 5.64484 10.7508C4.94436 10.7381 4.26532 10.507 3.70254 10.0897C3.13975 9.67247 2.72132 9.08987 2.50567 8.42329C2.71317 8.45412 2.9215 8.47495 3.13984 8.47495C3.44067 8.47495 3.74317 8.43329 4.024 8.36079C3.2638 8.2073 2.58023 7.79524 2.08952 7.19469C1.59881 6.59414 1.33125 5.84216 1.33234 5.06662V5.02495C1.77984 5.27412 2.299 5.42995 2.849 5.45079C2.38824 5.14461 2.01044 4.72914 1.74929 4.24145C1.48814 3.75375 1.35176 3.209 1.35234 2.65579C1.35234 2.03245 1.51817 1.46079 1.809 0.962455C2.65245 1.99997 3.70442 2.84876 4.89678 3.45384C6.08914 4.05892 7.3953 4.4068 8.73067 4.47495C8.679 4.22495 8.64734 3.96579 8.64734 3.70579C8.64712 3.26492 8.73379 2.82834 8.9024 2.42099C9.07101 2.01364 9.31825 1.64352 9.62999 1.33178C9.94173 1.02004 10.3119 0.772797 10.7192 0.604186C11.1266 0.435576 11.5631 0.348902 12.004 0.349122C12.9707 0.349122 13.8432 0.754121 14.4565 1.40912C15.208 1.2638 15.9286 0.989473 16.5865 0.598288C16.336 1.37397 15.8113 2.03171 15.1107 2.44829C15.7772 2.37227 16.4285 2.197 17.0432 1.92829C16.5841 2.59754 16.0153 3.18441 15.3607 3.66412Z" fill="#206966"/>
</svg>
